<svg xmlns="http://www.w3.org/2000/svg" xmlns:xlink="http://www.w3.org/1999/xlink">

	<symbol id="search" width="24" height="24" viewBox="0 0 24 24" fill="none" >
		<path d="M8.33333 7.33333H7.80667L7.62 7.15333C8.27333 6.39333 8.66667 5.40667 8.66667 4.33333C8.66667 1.94 6.72667 0 4.33333 0C1.94 0 0 1.94 0 4.33333C0 6.72667 1.94 8.66667 4.33333 8.66667C5.40667 8.66667 6.39333 8.27333 7.15333 7.62L7.33333 7.80667V8.33333L10.6667 11.66L11.66 10.6667L8.33333 7.33333ZM4.33333 7.33333C2.67333 7.33333 1.33333 5.99333 1.33333 4.33333C1.33333 2.67333 2.67333 1.33333 4.33333 1.33333C5.99333 1.33333 7.33333 2.67333 7.33333 4.33333C7.33333 5.99333 5.99333 7.33333 4.33333 7.33333Z " fill="#3C3835" />
	</symbol>

	<symbol id='alcohol'  viewBox="0 0 512 512">
		<path d="M32 0C19.1 0 7.4 7.8 2.4 19.8s-2.2 25.7 6.9 34.9L224 269.3V448H160c-17.7 0-32 14.3-32 32s14.3 32 32 32h96 96c17.7 0 32-14.3 32-32s-14.3-32-32-32H288V269.3L502.6 54.6c9.2-9.2 11.9-22.9 6.9-34.9S492.9 0 480 0H32zM173.3 128l-64-64H402.7l-64 64H173.3z"/>
	</symbol>

	<symbol id='fruit' viewBox="0 0 448 512">
		<path d="M448 96c0-35.3-28.7-64-64-64c-6.6 0-13 1-19 2.9c-22.5 7-48.1 14.9-71 9c-75.2-19.1-156.4 11-213.7 68.3S-7.2 250.8 11.9 326c5.8 22.9-2 48.4-9 71C1 403 0 409.4 0 416c0 35.3 28.7 64 64 64c6.6 0 13-1 19.1-2.9c22.5-7 48.1-14.9 71-9c75.2 19.1 156.4-11 213.7-68.3s87.5-138.5 68.3-213.7c-5.8-22.9 2-48.4 9-71c1.9-6 2.9-12.4 2.9-19.1zM212.5 127.4c-54.6 16-101.1 62.5-117.1 117.1C92.9 253 84 257.8 75.5 255.4S62.2 244 64.6 235.5c19.1-65.1 73.7-119.8 138.9-138.9c8.5-2.5 17.4 2.4 19.9 10.9s-2.4 17.4-10.9 19.9z"/>
	</symbol>

	<symbol id='star' viewBox="0 0 576 512">
		<path d="M287.9 0C297.1 0 305.5 5.25 309.5 13.52L378.1 154.8L531.4 177.5C540.4 178.8 547.8 185.1 550.7 193.7C553.5 202.4 551.2 211.9 544.8 218.2L433.6 328.4L459.9 483.9C461.4 492.9 457.7 502.1 450.2 507.4C442.8 512.7 432.1 513.4 424.9 509.1L287.9 435.9L150.1 509.1C142.9 513.4 133.1 512.7 125.6 507.4C118.2 502.1 114.5 492.9 115.1 483.9L142.2 328.4L31.11 218.2C24.65 211.9 22.36 202.4 25.2 193.7C28.03 185.1 35.5 178.8 44.49 177.5L197.7 154.8L266.3 13.52C270.4 5.249 278.7 0 287.9 0L287.9 0zM287.9 78.95L235.4 187.2C231.9 194.3 225.1 199.3 217.3 200.5L98.98 217.9L184.9 303C190.4 308.5 192.9 316.4 191.6 324.1L171.4 443.7L276.6 387.5C283.7 383.7 292.2 383.7 299.2 387.5L404.4 443.7L384.2 324.1C382.9 316.4 385.5 308.5 391 303L476.9 217.9L358.6 200.5C350.7 199.3 343.9 194.3 340.5 187.2L287.9 78.95z"/>
	</symbol>

	<symbol id="glass" viewBox="0 0 512 512">
		<path d="M479.1 32H32.04C12.55 32-2.324 49.25 .3008 68.51L56.29 425.1C60.79 456.6 87.78 480 119.8 480h272.9c31.74 0 58.86-23.38 63.36-54.89l55.61-356.6C514.3 49.25 499.5 32 479.1 32zM392.7 432H119.8c-8.121 0-14.84-5.752-16.07-14.34L90.88 336h330.5l-12.84 82.32C407.5 426.1 400.6 432 392.7 432zM428.9 288H83.35l-32.66-208h410.6L428.9 288z"/>
	</symbol>

</svg>